<svg xmlns="http://www.w3.org/2000/svg" viewBox="0 0 415.59 454.94"><defs><style>.cls-1,.cls-3{fill:#7d512b;}.cls-2{fill:none;stroke:#7d512b;stroke-linecap:round;stroke-miterlimit:10;stroke-width:3px;}.cls-3{font-size:46px;font-family:Modish-Regular, Modish;}</style></defs><g id="Layer_2" data-name="Layer 2"><g id="Layer_1-2" data-name="Layer 1"><g id="Layer_2-2" data-name="Layer 2"><path class="cls-1" d="M97.88,378.66c-.45,0-.78,0-.88,0h-.11l.1-.05s4.07-2,4.49-2.64a30.36,30.36,0,0,1,4.77-2.6l.13-.06a64.13,64.13,0,0,0,5.7-3c.32-.23.88-.61,1.63-1.12l1.09-.74c4.44-3,12.69-8.67,14.23-10.07,1.07-1,3.09-2.4,4.87-3.66l.18-.13a34.11,34.11,0,0,0,3-2.25c.75-.79,9.21-7.49,11-8.9,2-1.54,8.82-6.92,10.21-8.28.57-.57,1.88-1.73,3.26-2.95,2.46-2.18,4.48-4,5-4.63l.06,0c2.35-1.38,6.54-4.27,7.64-5.59.7-.84,3-3.11,5.08-5.16l.12-.13c1.27-1.24,2.44-2.4,3-3,1.63-1.73,15.81-17.24,17-18.87.43-.58,1.83-2.29,3.62-4.48l.4-.5c3.62-4.44,6.42-7.89,6.81-8.66s2-3,3.7-5.48c2.54-3.65,3.86-5.58,4-6s2.64-3.95,7.64-10.67l.55-.75,2.28-3.26c1.79-2.56,4.5-6.43,5-7.07.76-1,3.95-5.25,4.44-6.2.25-.48,2.06-3.11,3.8-5.64l.26-.37c1.82-2.66,3.54-5.17,4-5.91s1.84-2.94,3.22-5.09l.55-.86c1.38-2.15,2.68-4.18,3.07-4.86.82-1.41,5-7.24,6.3-8.94s6.21-9.27,7.36-11.48a24.5,24.5,0,0,1,2-3.07,17.73,17.73,0,0,0,1.44-2.19c.25-.48.82-1.43,1.49-2.53l.22-.36c1.85-3,3.58-5.93,3.74-6.74l0-.1.47-.68c1.9-2.87,5.08-7.68,6-8.48a12.2,12.2,0,0,1,2-1.33c.28-.16.5-.29.64-.39a37.68,37.68,0,0,0,4.16-3.81,15.24,15.24,0,0,1,1.16-1.37,12.32,12.32,0,0,0,1.51-1.89,1.84,1.84,0,0,1,1.14-1l.05,0-.5,1.29c-.32.38-2.45,2.78-3.47,3.82-.55.57-2,1.84-3.23,2.86l-.46.39a20.44,20.44,0,0,0-1.94,1.74c-.07.11-.47.56-.66.77-1.32,1.49-4.31,4.87-5.69,7.75-.87,1.79-2.25,4.05-3.35,5.87-1.58,2.61-2.31,3.85-2.34,4.29.08.89-.33,1.62-1.93,3.5s-8.46,13.06-9,14.28l0,0c-1.3,1.48-6.77,8.4-7.56,10.71-.28,1.06-8.64,13-9.43,14.13l-.16.23c-3.33,4.61-3.48,5-3.53,5.17l0,.05v.06c0,.69-1.73,3.19-2.44,3.93-.4.42-3.15,4.24-6.43,8.8L229,256.19c-1.09,1.52-1.9,2.64-2.13,2.94-.78,1-6.2,8.75-7.8,11.16s-5.8,8.84-6.76,10.33-8.07,10.29-8.63,10.92c-.94,1.06-16.44,18.58-17.33,19.65-.31.37-1.14,1.21-2.19,2.28a46.26,46.26,0,0,0-4.67,5.07c-.54,1-4.27,4.08-6.07,5.54l-.65.53c-.63.52-2.56,2-4.78,3.8-4,3.18-8,6.33-8.54,6.83-.88.84-14.42,12-15.54,12.84-.6.46-2.61,2.2-4.39,3.74l-.6.52c-1.42,1.21-2.64,2.27-2.93,2.48l-2.9,2c-8.25,5.79-16,11.23-16.62,11.82-.49.44-4,2.5-8.51,5.14l-.33.19c-3.75,2.19-6.25,3.65-6.68,4A5.38,5.38,0,0,1,97.88,378.66Z"/><path class="cls-1" d="M291.8,165.66v0h0l0,0m-8.44,8.16a6.17,6.17,0,0,0-.66.63v0l0,0c-.05.09-.45.53-.6.7l-.05,0c-.64.73-1.72,2-2.82,3.37a30.85,30.85,0,0,1,3-4,9.62,9.62,0,0,1,1.17-.84m-6.77,8.68-.27.54c-.59,1.21-1.43,2.67-2.26,4.05a16.49,16.49,0,0,0,1.69-3.32v0l.47-.69.36-.56M271.7,191a7.74,7.74,0,0,0-1.11,2.31v.14c.07.61-.18,1.21-1.84,3.15s-8.3,12.78-9,14.31h0c-1.17,1.36-6.78,8.36-7.63,10.87-.4,1.17-8.54,12.84-9.38,14l-.16.22c-3.35,4.65-3.5,5.08-3.57,5.26l0,.11v.11a13.25,13.25,0,0,1-2.33,3.7c-.41.43-3,4-6.36,8.68l-.55.77-.95,1.32c-1.06,1.47-1.89,2.63-2.11,2.92-.8,1-6.23,8.78-7.82,11.18S213,279,212,280.42s-8,10.24-8.59,10.87c-1,1.06-16.45,18.6-17.33,19.65-.33.39-1.31,1.38-2.18,2.26a42.38,42.38,0,0,0-4.73,5.16c-.51,1-4.34,4.09-6,5.43l-.64.53c-.63.52-2.54,2-4.79,3.8-4.93,3.88-8.08,6.38-8.56,6.85-.88.84-14.39,12-15.5,12.81-.62.47-2.63,2.21-4.41,3.76l-.6.51c-1.36,1.16-2.63,2.26-2.88,2.45l-1.35.94-1,.68-.68.47c-8.22,5.78-15.93,11.21-16.59,11.81-.5.45-4.91,3-8.45,5.09l-.38.22c-3.85,2.25-6.22,3.64-6.67,4a4.44,4.44,0,0,1-2.33.55,15.11,15.11,0,0,0,3.36-2.11,37.77,37.77,0,0,1,4.64-2.49l.11-.06a62.61,62.61,0,0,0,5.78-3.08l1.65-1.14,1.07-.73c6.14-4.19,12.82-8.77,14.26-10.08a58.58,58.58,0,0,1,4.84-3.64l.17-.12a33.42,33.42,0,0,0,3.09-2.3c.73-.77,9.17-7.45,11-8.86,2-1.54,8.84-6.94,10.25-8.32.56-.56,1.86-1.71,3.23-2.93l.08-.06c2.33-2.07,4.32-3.84,4.93-4.56h0c2.15-1.28,6.52-4.22,7.74-5.68.75-.9,3.55-3.66,5.06-5.14l.11-.11c1.26-1.24,2.44-2.41,3-3,1.63-1.72,15.83-17.26,17-18.9.42-.57,1.88-2.36,3.6-4.47l.41-.49c3.62-4.46,6.43-7.93,6.85-8.72s2.59-3.9,3.67-5.44a66.72,66.72,0,0,0,4-6.08c.2-.52,2.75-4.07,7.58-10.56l.57-.77,2.27-3.24c1.79-2.56,4.49-6.43,5-7.06.79-1,4-5.27,4.47-6.25.25-.48,2.21-3.32,3.78-5.61l.23-.34c1.84-2.68,3.57-5.21,4-6s1.8-2.89,3.15-5l.37-.58.15-.23c1.42-2.21,2.77-4.3,3.16-5,.82-1.4,4.95-7.2,6.27-8.9s6.25-9.32,7.4-11.54a24,24,0,0,1,2-3,19.38,19.38,0,0,0,1.47-2.24c.23-.45.77-1.35,1.41-2.41m21.51-27-.74.17a2.22,2.22,0,0,0-1.39,1.18,11.91,11.91,0,0,1-1.45,1.8,16.85,16.85,0,0,0-1.19,1.42,38.6,38.6,0,0,1-4.08,3.72c-.13.09-.33.21-.59.36a13.49,13.49,0,0,0-2.06,1.37c-.94.79-3.64,4.83-6.11,8.56l-.51.76-.06.16c-.16.81-2.28,4.3-3.69,6.61-.77,1.28-1.44,2.38-1.72,2.92a19.56,19.56,0,0,1-1.41,2.14,23.41,23.41,0,0,0-2,3.12c-1.14,2.18-6.09,9.85-7.33,11.42s-5.48,7.53-6.32,9c-.41.71-1.88,3-3.3,5.21-1.51,2.37-3.09,4.82-3.54,5.6s-2.36,3.55-4.2,6.25-3.57,5.19-3.83,5.69c-.46.88-3.53,5-4.4,6.13-.5.64-3,4.22-5,7.1-1.13,1.61-2.06,2.94-2.28,3.24l-.56.76c-6.59,8.86-7.58,10.41-7.69,10.76s-2.25,3.45-3.95,5.89-3.38,4.86-3.72,5.52c-.43.83-4.33,5.6-7.17,9.09-1.71,2.09-3.19,3.9-3.63,4.5-1.15,1.57-15.27,17-17,18.83-.6.62-1.82,1.83-3.13,3.12-2.06,2-4.39,4.33-5.1,5.19-1.07,1.28-5.22,4.14-7.6,5.54l-.11.09c-.54.66-2.86,2.72-4.9,4.53-1.42,1.25-2.76,2.44-3.34,3-1.38,1.35-8.2,6.74-10.18,8.25-1.55,1.2-10.27,8.09-11.09,8.94a34.28,34.28,0,0,1-3,2.2c-1.86,1.32-4,2.8-5.09,3.82-1.52,1.39-9.77,7-14.2,10-1.28.88-2.27,1.54-2.71,1.87-1,.68-3.54,1.95-5.79,3.07-3.36,1.68-4.66,2.34-4.91,2.72a24.54,24.54,0,0,1-4.34,2.52l-1.33.65L97,379c.1,0,.45,0,.91,0a6.07,6.07,0,0,0,3.34-.73c.46-.37,3.76-2.29,7-4.16,4.84-2.83,8.06-4.73,8.57-5.18.75-.68,12.28-8.77,17.2-12.23l2.29-1.61c.35-.25,1.83-1.53,3.56-3s3.78-3.27,4.37-3.72c1.11-.84,14.68-12,15.57-12.87.52-.51,4.95-4,8.51-6.8,2.23-1.76,4.16-3.29,4.79-3.81l.65-.53c2.71-2.21,5.64-4.65,6.17-5.66a49.58,49.58,0,0,1,4.6-5c1-1,1.88-1.91,2.21-2.3.88-1.05,16.4-18.61,17.32-19.64.55-.62,7.7-9.46,8.67-11s5.18-8,6.75-10.33,7-10.12,7.79-11.14c.29-.38,1.52-2.09,3.08-4.26,2.55-3.55,6.4-8.92,6.84-9.38.69-.72,2.5-3.31,2.54-4.17a53.06,53.06,0,0,1,3.48-5.08l.16-.23c.09-.12,9.16-13,9.49-14.23.76-2.23,6.2-9.11,7.51-10.62l.06-.09c.56-1.22,7.33-12.27,9-14.19s2.12-2.78,2-3.72a27.66,27.66,0,0,1,2.29-4.12c1.17-1.94,2.51-4.14,3.37-5.91,1.37-2.86,4.35-6.21,5.63-7.66a9,9,0,0,0,.68-.8c.13-.19,1.36-1.22,2.34-2.07,1.27-1.08,2.7-2.3,3.26-2.88,1.08-1.11,3.43-3.77,3.53-3.88l.77-2Z"/><path class="cls-1" d="M138.91,351.25c-.06-.05-.09-.08,0-.2l0,0s5.46-6.21,5.24-8.93V342l.82.57,2-1.71.07.07a46.83,46.83,0,0,0-4.56,6.83l-.25.42A26.24,26.24,0,0,1,138.91,351.25Z"/><path class="cls-1" d="M144.48,342.71h0l.44.31c-.48.71-1,1.45-1.38,2.15a8.28,8.28,0,0,0,.93-2.47m-2,4.21-.39.67-.2.33-.36.37c.32-.43.64-.9.95-1.37m4.45-6.57-2,1.76-1.22-.86.06.86c.17,2.11-3.67,7-5.17,8.7l-.07.09a.5.5,0,0,0,.13.63.46.46,0,0,0,.24.1c.33,0,1-.55,3.62-3.25l.24-.39a44,44,0,0,1,4.76-7.05l-.56-.59Z"/><path class="cls-1" d="M144.12,342.07l-.05-.06c-1.12-1.46-2.39-6.58-2.4-11.26a73.08,73.08,0,0,1,3.75-21.14l.42-1.09c.23-.6.49-1.24.76-1.91l.41-1c1.48-3.65,3.24-7.75,4.46-10.55.35-.82.7-1.62,1-2.4,1.68-3.82,2.87-6.46,3.43-7.62,1.61-3.33,7.39-14.32,8.66-16.63s10-16.74,11.14-18.12,10-16,11-17.79c.88-1.56,2.24-3.9,2.24-3.9l0-.06,0,.06c.08.27,1.89,6.56.21,11.48-.34,1-1.1,3.12-2.09,5.93l-1,2.76c-5.4,15.15-10.92,30.81-11,32-.1,1.39-3.89,13.68-5.92,20.29l-.55,1.8-.7,2.3c0,.21-.32,1.1-.79,2.58-.24.75-.52,1.63-.84,2.6-1,3.17-3.07,9.18-5,13.8l-.33.8c-.26.61-.52,1.18-.77,1.72a16.79,16.79,0,0,1-1.5,2.71,67.55,67.55,0,0,1-5,5.91,26.74,26.74,0,0,1-5.87,4.79,5.11,5.11,0,0,0-.7.6l-1,.85v-.09l.94-.81a5.85,5.85,0,0,1,.7-.6c4-2.22,8.09-7,10.85-10.69a16.26,16.26,0,0,0,1.61-2.93c.25-.54.51-1.13.77-1.76.09-.2.18-.42.27-.64l.07-.17c.81-2,1.72-4.42,2.86-7.65.69-2,1.4-4.07,2.12-6.26l.84-2.59c.38-1.21.61-2,.66-2.18l.83-2.72.43-1.4c2.87-9.34,5.82-19.06,5.91-20.26s6.67-19.82,11-32c1.53-4.29,2.64-7.42,3.08-8.7,1.16-3.38.62-7.53.19-9.7-.06-.3-.11-.53-.16-.75l-.21-1-.48.85-.31.54c-.18.3-.37.63-.56,1l-.86,1.51c-.77,1.38-9.91,16.39-11,17.8S166,266,164.65,268.4,157.6,281.72,156,285c-.55,1.13-1.65,3.57-3.57,7.9-.33.79-.68,1.59-1,2.4-1.71,3.93-3.33,7.78-4.57,10.84l-.37.93c-.29.72-.55,1.39-.78,2l-.2.53a72.9,72.9,0,0,0-3.75,21.1c0,4.5,1.27,9.68,2.34,11.16V342l.11.08.08.09h.06l.63.44,1.07-.93h.1l-1.17,1Z"/><path class="cls-1" d="M144.93,342.11v0m0,0v0m0,0v0m0,0v0m0,0v0m0,0,0,0,0,0v-.07m44.22-114.55-.47.82s-1.36,2.34-2.24,3.91c-1,1.82-9.95,16.42-11,17.74s-9.84,15.75-11.17,18.17-7.08,13.37-8.67,16.65c-.62,1.28-1.91,4.18-3.44,7.63-.33.78-.68,1.58-1,2.4-1.53,3.53-3.16,7.36-4.46,10.56a1,1,0,0,1,0,.1c-.11.29-.24.58-.34.85-.28.71-.55,1.37-.79,2l-.42,1.1a73.39,73.39,0,0,0-3.78,21.27c0,4.78,1.33,10,2.48,11.49h0l.09.09.55.4.56.4.25-.21,2.29-2-.56-.59-1.06.91h0l-1,.83-.18-.13-.29-.21h0c-.94-1.16-2.32-6.21-2.34-11a72.92,72.92,0,0,1,3.73-21c.07-.17.13-.35.21-.53.22-.61.48-1.27.77-2,.1-.27.22-.54.33-.83,0,0,0-.07,0-.1,1.31-3.22,3-7.18,4.56-10.83.36-.81.7-1.62,1-2.39,1.57-3.57,2.92-6.59,3.56-7.89,1.57-3.28,7.3-14.17,8.64-16.62s10-16.7,11.1-18.06,10.3-16.48,11.07-17.85l.85-1.5s0,0,0,0c.31-.56.62-1.08.87-1.51.05.22.1.45.15.72v0c.44,2.23.94,6.25-.18,9.51-.43,1.29-1.59,4.55-3.07,8.69-5.53,15.56-10.94,30.86-11,32.16s-4,14.05-5.9,20.18c-.71,2.3-1.18,3.82-1.26,4.12s-.28,1-.66,2.16c-.23.72-.52,1.6-.84,2.59l.65.65c.32-1,.6-1.85.83-2.59.46-1.42.75-2.38.81-2.6s.57-1.89,1.24-4.09c2.82-9.17,5.84-19.07,5.94-20.37s7.18-21.23,11-31.94c1.47-4.15,2.63-7.41,3.07-8.69,1.72-5-.12-11.44-.2-11.71l-.27-.91Zm-23.06,82.25c-.59,1.83-1.32,4-2.11,6.25-.92,2.62-1.91,5.33-2.85,7.63l-.08.17-.27.65c-.26.62-.51,1.21-.76,1.75.25-.54.5-1.13.76-1.75l.27-.65.08-.17c.94-2.3,1.93-5,2.85-7.63.79-2.23,1.52-4.42,2.11-6.25Zm0,0,.65.65-.65-.65Zm0,0c-.59,1.83-1.32,4-2.11,6.25-.92,2.62-1.91,5.33-2.85,7.63l-.08.17-.27.65c-.26.62-.51,1.21-.76,1.75.25-.54.5-1.13.76-1.75l.27-.65.08-.17c.94-2.3,1.93-5,2.85-7.63.79-2.23,1.52-4.42,2.11-6.25Zm0,0c-.59,1.83-1.32,4-2.11,6.25-.92,2.62-1.91,5.33-2.85,7.63l-.08.17-.27.65c-.26.62-.51,1.21-.76,1.75.25-.54.5-1.13.76-1.75l.27-.65.08-.17c.94-2.3,1.93-5,2.85-7.63.79-2.23,1.52-4.42,2.11-6.25l.65.65-.65-.65Zm0,0c-.59,1.83-1.32,4-2.11,6.25-.92,2.62-1.91,5.33-2.85,7.63l-.08.17-.27.65c-.26.62-.51,1.21-.76,1.75l.62.56c.25-.53.51-1.11.77-1.72l.27-.63.07-.18c1.74-4.21,3.67-9.79,5-13.83l-.65-.65Zm.65.65Zm0,0Zm0,0Zm0,0c-1.32,4-3.25,9.62-5,13.83l-.07.18-.27.63c-.26.61-.52,1.19-.77,1.72.25-.53.51-1.11.77-1.72l.27-.63.07-.18c1.74-4.21,3.67-9.79,5-13.83Zm0,0Zm0,0Zm0,0c-1.32,4-3.25,9.62-5,13.83l-.07.18-.27.63c-.26.61-.52,1.19-.77,1.72.25-.53.51-1.11.77-1.72l.27-.63.07-.18c1.74-4.21,3.67-9.79,5-13.83Zm0,0Zm0,0c-1.32,4-3.25,9.62-5,13.83l-.07.18-.27.63c-.26.61-.52,1.19-.77,1.72.25-.53.51-1.11.77-1.72l.27-.63.07-.18c1.74-4.21,3.67-9.79,5-13.83ZM160,326.26a17.08,17.08,0,0,1-1.57,2.86c-2.74,3.62-6.82,8.4-10.76,10.6a4.88,4.88,0,0,0-.74.63,4.88,4.88,0,0,1,.74-.63c3.94-2.2,8-7,10.76-10.6a17.08,17.08,0,0,0,1.57-2.86Zm0,0h0Zm0,0h0Zm0,0h0Zm0,0h0Zm0,0h0Zm0,0h0Zm0,0,.62.56-.62-.56Zm0,0a17.08,17.08,0,0,1-1.57,2.86c-2.74,3.62-6.82,8.4-10.76,10.6a4.88,4.88,0,0,0-.74.63,4.88,4.88,0,0,1,.74-.63c3.94-2.2,8-7,10.76-10.6a17.08,17.08,0,0,0,1.57-2.86Zm0,0h0Zm0,0h0Zm0,0h0Zm0,0a17.08,17.08,0,0,1-1.57,2.86c-2.74,3.62-6.82,8.4-10.76,10.6a4.88,4.88,0,0,0-.74.63,4.88,4.88,0,0,1,.74-.63c3.94-2.2,8-7,10.76-10.6a17.08,17.08,0,0,0,1.57-2.86Zm0,0a17.08,17.08,0,0,1-1.57,2.86c-2.74,3.62-6.82,8.4-10.76,10.6a4.88,4.88,0,0,0-.74.63,4.88,4.88,0,0,1,.74-.63c3.94-2.2,8-7,10.76-10.6a17.08,17.08,0,0,0,1.57-2.86Zm0,0a17.08,17.08,0,0,1-1.57,2.86c-2.74,3.62-6.82,8.4-10.76,10.6a4.88,4.88,0,0,0-.74.63,4.88,4.88,0,0,1,.74-.63c3.94-2.2,8-7,10.76-10.6a17.08,17.08,0,0,0,1.57-2.86Zm0,0a17.08,17.08,0,0,1-1.57,2.86c-2.74,3.62-6.82,8.4-10.76,10.6a4.88,4.88,0,0,0-.74.63,4.88,4.88,0,0,1,.74-.63c3.94-2.2,8-7,10.76-10.6a17.08,17.08,0,0,0,1.57-2.86l.62.56-.62-.56Zm0,0a17.08,17.08,0,0,1-1.57,2.86c-2.74,3.62-6.82,8.4-10.76,10.6a4.88,4.88,0,0,0-.74.63,4.88,4.88,0,0,1,.74-.63c3.94-2.2,8-7,10.76-10.6a17.08,17.08,0,0,0,1.57-2.86l.62.56-.62-.56Zm0,0a17.08,17.08,0,0,1-1.57,2.86c-2.74,3.62-6.82,8.4-10.76,10.6a4.88,4.88,0,0,0-.74.63l.56.59a5.76,5.76,0,0,1,.61-.54,26.92,26.92,0,0,0,6-4.85,66.5,66.5,0,0,0,5-5.95,16.92,16.92,0,0,0,1.54-2.78l-.62-.56Zm.62.56Zm0,0Zm0,0Zm0,0Zm0,0Zm0,0a16.92,16.92,0,0,1-1.54,2.78,66.5,66.5,0,0,1-5,5.95,26.92,26.92,0,0,1-6,4.85,5.76,5.76,0,0,0-.61.54l-.56-.59.56.59a5.76,5.76,0,0,1,.61-.54,26.92,26.92,0,0,0,6-4.85,66.5,66.5,0,0,0,5-5.95,16.92,16.92,0,0,0,1.54-2.78Zm0,0Zm0,0Zm0,0Zm0,0a16.92,16.92,0,0,1-1.54,2.78,66.5,66.5,0,0,1-5,5.95,26.92,26.92,0,0,1-6,4.85,5.76,5.76,0,0,0-.61.54l-.56-.59.56.59a5.76,5.76,0,0,1,.61-.54,26.92,26.92,0,0,0,6-4.85,66.5,66.5,0,0,0,5-5.95,16.92,16.92,0,0,0,1.54-2.78Zm0,0Zm0,0Zm0,0Zm0,0a16.92,16.92,0,0,1-1.54,2.78,66.5,66.5,0,0,1-5,5.95,26.92,26.92,0,0,1-6,4.85,5.76,5.76,0,0,0-.61.54l-.56-.59.56.59a5.76,5.76,0,0,1,.61-.54,26.92,26.92,0,0,0,6-4.85,66.5,66.5,0,0,0,5-5.95,16.92,16.92,0,0,0,1.54-2.78Zm0,0Zm0,0Zm0,0Zm0,0a16.92,16.92,0,0,1-1.54,2.78,66.5,66.5,0,0,1-5,5.95,26.92,26.92,0,0,1-6,4.85,5.76,5.76,0,0,0-.61.54,5.76,5.76,0,0,1,.61-.54,26.92,26.92,0,0,0,6-4.85,66.5,66.5,0,0,0,5-5.95,16.92,16.92,0,0,0,1.54-2.78Zm0,0Zm0,0Zm0,0Zm0,0a16.92,16.92,0,0,1-1.54,2.78,66.5,66.5,0,0,1-5,5.95,26.92,26.92,0,0,1-6,4.85,5.76,5.76,0,0,0-.61.54,5.76,5.76,0,0,1,.61-.54,26.92,26.92,0,0,0,6-4.85,66.5,66.5,0,0,0,5-5.95,16.92,16.92,0,0,0,1.54-2.78Zm0,0Zm0,0Zm0,0Zm0,0a16.92,16.92,0,0,1-1.54,2.78,66.5,66.5,0,0,1-5,5.95,26.92,26.92,0,0,1-6,4.85,5.76,5.76,0,0,0-.61.54,5.76,5.76,0,0,1,.61-.54,26.92,26.92,0,0,0,6-4.85,66.5,66.5,0,0,0,5-5.95,16.92,16.92,0,0,0,1.54-2.78Zm0,0Zm0,0a16.92,16.92,0,0,1-1.54,2.78,66.5,66.5,0,0,1-5,5.95,26.92,26.92,0,0,1-6,4.85,5.76,5.76,0,0,0-.61.54,5.76,5.76,0,0,1,.61-.54,26.92,26.92,0,0,0,6-4.85,66.5,66.5,0,0,0,5-5.95,16.92,16.92,0,0,0,1.54-2.78ZM147,340.35h0Zm0,0h0Zm0,0h0Zm0,0h0Zm0,0h0Zm0,0h0Zm0,0h0Zm0,0h0Zm0,0h0Zm0,0h0Zm0,0h0Zm0,0h0Zm0,0h0Zm0,0h0Zm0,0h0Zm0,0h0Zm0,0h0Zm0,0h0Zm0,0h0Zm0,0h0Zm0,0h0Zm0,0h0Zm0,0h0Zm0,0h0Zm0,0h0Zm0,0h0Zm0,0h0Zm0,0h0Zm0,0h0Zm0,0h0Zm0,0h0Zm0,0h0Zm0,0h0Zm0,0h0Zm0,0h0Zm0,0h0Zm0,0h0Zm0,0h0Zm0,0,.56.59-.56-.59Zm0,0h0Zm0,0h0Zm0,0h0Zm0,0,.56.59-.56-.59Zm0,0h0Zm0,0,.56.59-.56-.59Zm-1.07.92-1,.84,1-.84Zm0,0-1,.84,1-.84Zm0,0h0Zm0,0-1,.84,1-.84h0Zm0,0-1,.84,1-.83Zm0,0h0Zm0,0h0Zm0,0h0Zm0,0-1,.83,1-.83Zm0,0h0Zm0,0-1,.83,1-.83Zm-1,.83h0Zm0,0h0Zm0,0h0Zm0,0h0Zm0,0h0Zm0,0h0Z"/><path class="cls-1" d="M141.07,349.11l.2-.32c.7-1.11,2.66-4.27,3.31-5.51l.18-.39.33-.77q.18-.48.42-1.08v.17c-.25.64-.47,1.17-.64,1.57-.09.22-.17.4-.24.53-.34.66-1.13,2-2.1,3.56l-.27.44-.32.52-.05.08-.71,1.14-.06.1Zm4.49-8.21c.35-.9.74-2,1.16-3.08l.4-1.08c1.07-2.88,2.18-5.88,3.08-8.05,1.41-3.44,5.7-16.48,8.65-26.35.27-.92.54-1.81.79-2.65.68-2.36,1.23-4.36,1.58-5.77,1.66-6.8,9.37-22,12.61-28.21.67-1.29,2.9-5.9,5.12-10.52l.86-1.77c2.19-4.53,4.26-8.8,5-10.23,1.18-2.28,2.84-8.94,3.52-11.82l0,0v-.17c.25-1,.44-1.79.54-2.23H189l-.32,1.39v.06c-.72,3-2.53,10.41-3.79,12.81-.83,1.6-3.31,6.72-5.86,12l-.88,1.82c-2,4.07-3.67,7.58-4.25,8.7-4,7.77-11,21.76-12.6,28.19-.35,1.45-.94,3.59-1.71,6.19l-.21.71c-.18.63-.38,1.28-.58,1.94-3,9.94-7.13,22.54-8.53,25.94-.92,2.24-2.07,5.33-3.07,8.05-.57,1.54-1.11,3-1.55,4.14Z"/><path class="cls-1" d="M188.63,228.49s-.24,1.11-.62,2.68c0,0,0,0,0,0-.85,3.59-2.42,9.72-3.51,11.83-.85,1.63-3.4,6.91-5.87,12-2.29,4.74-4.46,9.23-5.12,10.51-3.26,6.24-11,21.5-12.64,28.29-.35,1.41-.9,3.42-1.58,5.75l-.79,2.65c-2.87,9.6-7.17,22.75-8.64,26.31-.92,2.23-2.07,5.33-3.08,8.07-.78,2.09-1.52,4.1-2,5.37-.12.3-.24.56-.33.76a3.15,3.15,0,0,1-.17.36c-.61,1.19-2.46,4.18-3.29,5.49-.13.22-.24.39-.31.5l-.09.14.34.21.35.22s.12-.17.26-.41l.71-1.14h0c.19-.33.41-.67.63-1,.82-1.32,1.71-2.81,2.12-3.58.07-.14.15-.33.25-.56.18-.42.4-1,.66-1.65h0c.46-1.19,1-2.72,1.64-4.37,1-2.73,2.16-5.83,3.07-8,1.45-3.52,5.66-16.38,8.54-26,.28-.91.54-1.81.79-2.65.75-2.54,1.35-4.7,1.71-6.21,1.63-6.71,9.34-21.89,12.57-28.11.67-1.29,2.84-5.78,5.14-10.52,2.46-5.11,5-10.39,5.85-12,1.27-2.43,3-9.64,3.83-13v0c.23-1,.38-1.6.4-1.71l-.8-.18Z"/><path class="cls-1" d="M173.32,363.62a24.25,24.25,0,0,1-4.85-.43,38,38,0,0,1-11.59-3.68c-2.24-1.16-5.06-3-5.9-5.32V354l-.08,0a3.61,3.61,0,0,1-.18-1.2,1.62,1.62,0,0,1,0-.22v0l.23-.13c.62-.32,1.23-.67,1.83-1h0l.14-.08.25-.15c3.13-1.77,6.35-3.59,10.82-3.74,4.83-.16,19.74-1.8,24.74-2.51.71-.1,1.23-.18,1.49-.24l3.64-.82,4.91-1.08,2.83-.62c8.63-1.87,13.4-2.78,14.57-2.78h.27c1.86,0,20.66-7.54,22.8-8.68s12.69-5.64,15-6.59l.21-.1-.08.1a59.85,59.85,0,0,1-8.21,7.54c-1.59,1.1-4.08,2.91-6.48,4.66l-.72.52c-3.05,2.21-5.68,4.12-6.21,4.39l-2.91,1.51-9.29,4.81-.62.34c-.28.13-.59.3-.89.45l-3.49,1.82L212,352.05l-1.76.94-.43.22c-3.35,1.55-19.5,8.19-21.42,8.52l-1,.2A78,78,0,0,1,173.32,363.62Zm42.8-24.2c-1.06,0-5.62.88-13.94,2.69l-2.83.61-4.06.89-5.06,1.13-.13.05c-2.36.44-20.58,2.51-26,2.69-4.44.15-7.5,1.87-10.73,3.7l-.56.31-.44.24-.71.4-.79.42,0,.25a2.4,2.4,0,0,0,0,.37,3.24,3.24,0,0,0,.22,1c1.72,4.56,11.24,8.13,17.45,9a24.14,24.14,0,0,0,4.84.42,79.37,79.37,0,0,0,14-1.68l.31-.06c.31-.06.55-.11.72-.13,1.76-.3,17.6-6.76,21.1-8.38.34-.16.6-.28.74-.36l1.53-.83,7.51-3.91,12.22-6.34,1.32-.68c.55-.29,3.54-2.45,6.81-4.83l.6-.43c2.22-1.61,4.51-3.28,6-4.31a47,47,0,0,0,6.05-5.29l.19-.11,0-.06,2-2-5,2.13h-.07l-.07.06c-2.5,1.08-8.37,3.61-10,4.45s-20.66,8.68-22.92,8.68Z"/><path class="cls-1" d="M255.92,323.05Zm0,0-1.64.68-.06,0,0,0c-2.41,1-12.91,5.45-15.07,6.61-2.48,1.32-20.93,8.63-22.63,8.63h-.05l-.22,0c-1.2,0-5.78.87-14.65,2.79l-2.83.63-4.91,1.08-.57.13-.93.21-.18,0-2,.43c-.25.06-.76.14-1.46.24-5,.7-19.81,2.34-24.69,2.5-4.57.16-7.82,2-11,3.78l-.29.18-.1.05,0,0c-.6.35-1.2.69-1.83,1l-.21.11-.2.11,0,.23a2.09,2.09,0,0,0,0,.25,4.27,4.27,0,0,0,.25,1.46h0c.84,2.4,3.64,4.32,6.1,5.59a38.53,38.53,0,0,0,11.69,3.72,24.66,24.66,0,0,0,4.93.43,79.84,79.84,0,0,0,14.12-1.69l1-.2c2-.34,18.16-7,21.47-8.53l.5-.25,1.75-.94,3.62-1.89,3.5-1.82.9-.46c.2-.11.4-.22.61-.32,5.88-3.06,12.08-6.26,12.19-6.33.59-.3,3.5-2.41,6.87-4.86,2.44-1.78,5-3.62,6.59-4.74a59.61,59.61,0,0,0,8.26-7.59l1.19-1.32ZM216.4,339.82c2.36,0,21.4-7.83,23.1-8.73,1.35-.71,6.09-2.79,10-4.45h0l3.35-1.43L252,326h0a47.48,47.48,0,0,1-6,5.25c-1.63,1.13-4.16,3-6.61,4.74-3.06,2.23-6.23,4.53-6.76,4.81l-13.54,7-.61.32-.85.44-3.39,1.77-2.67,1.39-1.54.84c-.13.08-.38.19-.71.34-3.83,1.77-19.37,8.07-21,8.35-.22,0-.58.1-1,.19a77.81,77.81,0,0,1-14,1.68,23.93,23.93,0,0,1-4.79-.42c-6.54-.89-15.57-4.56-17.14-8.7v0a3.31,3.31,0,0,1-.2-.91,1.71,1.71,0,0,1,0-.31l0,0,.59-.32.53-.29.17-.11.65-.35.32-.18c3.2-1.81,6.23-3.53,10.6-3.67,5.52-.19,23.73-2.26,26.21-2.74l.08,0,2-.44,1.48-.33,1-.22.59-.13c1.43-.32,2.78-.62,4.06-.89l2.83-.62c8.17-1.77,12.82-2.68,13.86-2.68h.15l.13,0Z"/><path class="cls-1" d="M171.82,355.91a27.5,27.5,0,0,1-4.2-.28c-1.69-.27-3.24-.5-4.66-.71l-1.44-.21c-4.79-.7-8-1.16-10.14-1.92l-.89-.36-.06,0,0-.06.17.07c.3.13.61.25,1,.36l.09,0a67.89,67.89,0,0,0,9.86,1.83l1.45.21,4.64.7a27.66,27.66,0,0,0,4.31.3c10.54,0,25-4.19,26.72-4.88.78-.33,2.66-1,4.88-1.72l.06,0,1.33-.44,3.52-1.17c4.92-1.64,9.59-3.22,10.45-3.73s3.86-1.93,6.54-3.19c2.95-1.39,6.63-3.12,7.84-3.83,1.42-.84,9.47-5.72,15.35-9.29l.95-.58h.05l.08-.07,4.4-2.67,0,.05-2.48,1.51h0l-2.36,1.44c-5.78,3.5-14.51,8.8-16,9.66-1.18.7-4.57,2.29-7.84,3.83l-.85.41c-2.67,1.26-5,2.35-5.69,2.78s-4.74,1.82-8.9,3.22l-3.19,1.06-1.51.49-.37.13c-2.87,1-5.33,1.79-6.28,2.18C196.23,352,182.14,355.91,171.82,355.91Z"/><path class="cls-1" d="M254.22,323.75l0,0-4.7,2.86h0c-5.76,3.49-14.89,9-16.39,9.91-1.16.68-4.54,2.28-7.81,3.82-3,1.4-5.76,2.72-6.57,3.2s-5.81,2.19-10.38,3.7l-.94.32-.69.23-1.89.63-1.33.44h0c-2.28.77-4.16,1.41-5,1.74-2,.81-16.32,4.85-26.58,4.85a26.78,26.78,0,0,1-4.25-.29l-6.09-.91a66.73,66.73,0,0,1-9.8-1.82h0a8.33,8.33,0,0,1-1-.37c-.17-.07-.33-.15-.48-.23l-.38.72.42.21.84.33.07,0c2.22.77,5.44,1.24,10.22,1.94,1.79.27,3.81.56,6.09.92a28,28,0,0,0,4.26.29c10,0,24.21-3.77,27-4.92.93-.38,3.4-1.21,6.26-2.17l.36-.12,1.51-.49,1.07-.36,2.12-.71c4.32-1.45,8.15-2.76,9-3.25s3.56-1.77,6.51-3.17c3.28-1.55,6.68-3.14,7.87-3.84,1.72-1,13.24-8,18.52-11.21h0c1.56-1,2.57-1.57,2.62-1.59l-.43-.7Z"/><path class="cls-1" d="M150.73,353.83a9.14,9.14,0,0,0-1.41-1.1,25.43,25.43,0,0,1-2.67-2.29,10.71,10.71,0,0,0-2.42-2,2.25,2.25,0,0,0-.53-.06,6.33,6.33,0,0,0-1.55.27l-.24.07,2.53-1.58v0l.62.57c.48.43,4.7,4.22,5.93,4.22h.05l.12,0a10.08,10.08,0,0,0,1.43-.46l0,.08-.32.17-.2.12-.52.27-.82.46.19,1.2Z"/><path class="cls-1" d="M144.39,347.63c.14.13.28.26.43.38,1,.93,4.21,3.74,5.77,4.25l-.22.12.08.51,0,.22c-.24-.19-.55-.42-1-.7a26.14,26.14,0,0,1-2.62-2.25c-1.65-1.54-2.19-2-2.58-2.07a2.92,2.92,0,0,0-.55-.08l.62-.38m.1-.95-1.54,1-.74.47-1.57,1-1.27.8-.08,0v0l.06,0,1.55-.49.61-.19.23-.06.53-.17a5.74,5.74,0,0,1,1.44-.26,1.88,1.88,0,0,1,.43.05,13.92,13.92,0,0,1,2.26,1.9,26.43,26.43,0,0,0,2.72,2.33,6.26,6.26,0,0,1,1.48,1.2h0l.79-.19v0l-.13-.88-.05-.36.58-.33.54-.28.17-.11.65-.34h0l-.18-.35-.2-.36-.1.05,0,0a10.92,10.92,0,0,1-1.54.51H151c-.72,0-3.34-2-5.68-4.13l-.61-.56-.22-.22Z"/><path class="cls-1" d="M288.7,208.13c-.21-.27-.43-.54-.65-.8a.94.94,0,0,1,0,.16,127.86,127.86,0,0,1-3.82,13.1h0a.31.31,0,0,1-.05.1l-.31.88-.3.82.55-.56.78-.83.05,0a0,0,0,0,1,0,0c.37-.38.71-.77,1-1.15l0-.06a.43.43,0,0,0,0-.07l.39-.66c.24-.44.45-.84.62-1.2q.14-.26.24-.51t.21-.45c0-.15.11-.28.16-.41h0l-.2-.12a24.92,24.92,0,0,1-1.81,2.58c1.07-3.19,2.17-7.09,3-10.61A.94.94,0,0,0,288.7,208.13Zm0,0c-.21-.27-.43-.54-.65-.8a.94.94,0,0,1,0,.16,127.86,127.86,0,0,1-3.82,13.1h0a.31.31,0,0,1-.05.1l-.31.88-.3.82.55-.56.78-.83.05,0a0,0,0,0,1,0,0c.37-.38.71-.77,1-1.15l0-.06a.43.43,0,0,0,0-.07l.39-.66c.24-.44.45-.84.62-1.2q.14-.26.24-.51t.21-.45c0-.15.11-.28.16-.41h0l-.2-.12a24.92,24.92,0,0,1-1.81,2.58c1.07-3.19,2.17-7.09,3-10.61A.94.94,0,0,0,288.7,208.13ZM285.27,178l0-.05-1.62-1.64,1,2.09s1.44,3.11,2.77,5.9c1.13,2.37,1.67,10,1.93,13.62,0,.54.07,1,.1,1.35a23.65,23.65,0,0,1-.66,5c-.14.68-.3,1.41-.47,2.17-.07.26-.12.55-.19.83a.94.94,0,0,1,0,.16,127.86,127.86,0,0,1-3.82,13.1h0a.31.31,0,0,1-.05.1l-.31.88-.3.82.55-.56.78-.83.05,0a0,0,0,0,1,0,0c.37-.38.71-.77,1-1.15l0-.06a24.46,24.46,0,0,0,2.17-3h0c.23-.38.43-.74.6-1.06v0a9.5,9.5,0,0,0,.86-2c0-.06.07-.19.14-.38q.5-1.16.9-2.37a.78.78,0,0,0,.05-.14c.1-.26.19-.53.27-.8.22-.68.41-1.37.59-2.08a47.57,47.57,0,0,0,1.52-11.16C293.33,186.67,285.89,178.67,285.27,178Zm5.69,29c-.17.71-.36,1.42-.57,2.11-.08.27-.16.53-.25.79a.78.78,0,0,0-.05.14q-.33,1-.72,2h0c-.11.29-.22.57-.34.86a2.33,2.33,0,0,0-.2.53,14,14,0,0,1-1.39,2.83,24.92,24.92,0,0,1-1.81,2.58c1.07-3.19,2.17-7.09,3-10.61a.94.94,0,0,0,0-.16c.07-.28.14-.56.2-.83.17-.76.34-1.48.48-2.17a27,27,0,0,0,.8-5.89c0-.36-.06-.81-.1-1.35a92.56,92.56,0,0,0-1.39-12h0a10.2,10.2,0,0,0-.62-1.91c-.49-1-1-2.1-1.44-3a33.15,33.15,0,0,1,2.47,3.84.52.52,0,0,0,.06.13,24,24,0,0,1,3.13,11.8A47.91,47.91,0,0,1,291,207.07Zm-2.26,1.06c-.21-.27-.43-.54-.65-.8a.94.94,0,0,1,0,.16,127.86,127.86,0,0,1-3.82,13.1h0a.31.31,0,0,1-.05.1l-.31.88-.3.82.55-.56.78-.83.05,0a0,0,0,0,1,0,0c.37-.38.71-.77,1-1.15l0-.06a.43.43,0,0,0,0-.07l.39-.66c.24-.44.45-.84.62-1.2q.14-.26.24-.51t.21-.45c0-.15.11-.28.16-.41h0l-.2-.12a24.92,24.92,0,0,1-1.81,2.58c1.07-3.19,2.17-7.09,3-10.61A.94.94,0,0,0,288.7,208.13Zm0,0c-.21-.27-.43-.54-.65-.8a.94.94,0,0,1,0,.16,127.86,127.86,0,0,1-3.82,13.1h0a.31.31,0,0,1-.05.1l-.31.88-.3.82.55-.56.78-.83.05,0a0,0,0,0,1,0,0c.37-.38.71-.77,1-1.15l0-.06a.43.43,0,0,0,0-.07l.39-.66c.24-.44.45-.84.62-1.2q.14-.26.24-.51t.21-.45c0-.15.11-.28.16-.41h0l-.2-.12a24.92,24.92,0,0,1-1.81,2.58c1.07-3.19,2.17-7.09,3-10.61A.94.94,0,0,0,288.7,208.13Zm0,0c-.21-.27-.43-.54-.65-.8a.94.94,0,0,1,0,.16,127.86,127.86,0,0,1-3.82,13.1h0a.31.31,0,0,1-.05.1l-.31.88-.3.82.55-.56.78-.83.05,0a0,0,0,0,1,0,0c.37-.38.71-.77,1-1.15l0-.06a.43.43,0,0,0,0-.07l.39-.66c.24-.44.45-.84.62-1.2q.14-.26.24-.51t.21-.45c0-.15.11-.28.16-.41h0l-.2-.12a24.92,24.92,0,0,1-1.81,2.58c1.07-3.19,2.17-7.09,3-10.61A.94.94,0,0,0,288.7,208.13Z"/><path class="cls-1" d="M218.18,281.44c.74-1.77,1.35-3.3,1.46-3.66.27-.81,6.84-8.82,9.34-11,.8-.72,2.73-2.49,5-4.62l.84-.78c4.83-4.45,11.44-10.54,12.61-11.41.56-.41,2.25-1.78,4.4-3.52,4.61-3.74,11.58-9.38,13-10.12a180.13,180.13,0,0,0,17.25-13,20.31,20.31,0,0,0,1.78-1.72,5.47,5.47,0,0,0,.46-.57h0a6.11,6.11,0,0,1-.5.62c-.41.45-1,1-1.72,1.66a185,185,0,0,1-17.28,13c-1.29.67-7,5.26-13,10.12l-1.17.94c-1.55,1.26-2.78,2.24-3.23,2.58-1.13.84-7.33,6.54-12.61,11.41l-.76.71c-2.31,2.12-4.31,4-5.13,4.67-2.44,2.18-8.94,10.08-9.3,11-.12.36-.67,1.73-1.46,3.68Z"/><path class="cls-1" d="M284.19,220.6a.31.31,0,0,1-.05.1,3.2,3.2,0,0,1-.51.68,19.61,19.61,0,0,1-1.75,1.69A180.29,180.29,0,0,1,264.7,236c-1.44.75-8.16,6.18-13.06,10.15-2.15,1.74-3.84,3.11-4.39,3.52-1.19.88-7.54,6.73-12.64,11.44-2.68,2.46-5,4.58-5.88,5.39-2.42,2.14-9.13,10.22-9.45,11.19-.11.36-.76,2-1.5,3.75a2,2,0,0,1-.09.22l.76.32.14-.35c.63-1.54,1.33-3.27,1.46-3.69a91.36,91.36,0,0,1,9.21-10.84c.91-.8,3.22-2.93,5.9-5.39,4.82-4.46,11.42-10.54,12.57-11.39.57-.42,2.27-1.8,4.42-3.53,4.6-3.73,11.56-9.36,12.94-10.08a183.56,183.56,0,0,0,17.35-13.06,22.24,22.24,0,0,0,1.74-1.69,4.09,4.09,0,0,0,.73-1,0,0,0,0,1,0,0,.24.24,0,0,0,0-.09l-.76-.26Z"/><path class="cls-1" d="M220.71,283.75l3.36-1.21,4.07-1.48a19.17,19.17,0,0,0,4.52-2.71,73.18,73.18,0,0,0,6.5-5.76l.54-.52c.57-.53,5.79-6.57,12-13.82l.88-1c2.47-2.88,4.83-5.62,5.4-6.26,1-1.17,4.87-4.84,7.66-7.51l.16-.15c1.47-1.4,2.53-2.42,2.89-2.78.5-.51,2.54-2.72,5-5.42,1.07-1.19,2.24-2.49,3.4-3.8h0l0-.05c1.77-2,4.31-4.89,6-7l.69-.85c.3-.38.58-.74.84-1.09.57-.77,1.1-1.56,1.58-2.35l.07-.07v-.07c.15-.23.28-.46.4-.68.24-.44.46-.84.63-1.2a4.54,4.54,0,0,0,.21-.45l.24-.54c0-.09.08-.18.11-.27l.07-.15c.12-.32.2-.57.26-.75h.05a22.33,22.33,0,0,1-3.66,6.65l-.09.13c-.21.28-.43.57-.67.86l-.74.92c-4.28,5.19-13.3,15.09-14.39,16.18-.33.34-1.36,1.33-2.89,2.79-3.25,3.1-6.8,6.5-7.81,7.65-.48.53-2.19,2.52-4.44,5.13l-1,1.12c-2.69,3.13-5.71,6.64-8.15,9.46l-.79.91-.11.12c-2.31,2.66-3.61,4.13-3.86,4.37l-.6.58c-.94.92-2.7,2.62-4.72,4.31-.56.48-1.15.94-1.73,1.39a19.4,19.4,0,0,1-4.53,2.72l-1.12.41-1.17.43-3.48,1.26-1.65.59Z"/><path class="cls-1" d="M288,215.37a11.16,11.16,0,0,1-.35,1.07h0l-.16.41q-.09.21-.21.45a3.91,3.91,0,0,1-.24.51c-.17.36-.38.76-.62,1.2l-.39.66a.43.43,0,0,1,0,.07l0,.06c-.43.71-.95,1.49-1.56,2.33-.26.35-.54.7-.83,1.08l-.69.84c-1.52,1.87-3.75,4.42-6,6.95l0,0c-1.17,1.32-2.34,2.64-3.43,3.84-2.47,2.75-4.49,4.93-5,5.4s-1.47,1.43-2.88,2.78c-2.85,2.73-6.77,6.48-7.84,7.68-.55.61-2.7,3.11-5.4,6.26-4.88,5.66-12.25,14.22-12.9,14.82-.1.11-.29.29-.52.52a72.69,72.69,0,0,1-6.48,5.73,18.76,18.76,0,0,1-4.42,2.66L224,282.19l-3.71,1.34-.1.05.24.33.14.37h0l1.94-.7,3.43-1.24h0l1.22-.45h0l1.11-.41a19.71,19.71,0,0,0,4.62-2.77c.59-.45,1.19-.92,1.75-1.4,2.09-1.74,3.91-3.52,4.82-4.4l.51-.5c.3-.29,1.82-2,3.9-4.41h0l.88-1c2.44-2.82,5.46-6.32,8.15-9.45s4.86-5.64,5.41-6.25c1-1.18,5-4.91,7.79-7.63,1.42-1.35,2.53-2.42,2.9-2.8,1.1-1.1,10.15-11,14.41-16.21l.74-.91c.28-.34.53-.68.77-1a21.65,21.65,0,0,0,3.81-7.07v0a.35.35,0,0,1,0-.06l-.24-.05-.54-.13Z"/><path class="cls-1" d="M202.71,291.76h0c.79-.11,4.79-.75,6.74-2.21,2-1.21,6.8-4.32,8.09-6.66l.08,0-.18.42c-.17.4-.33.78-.48,1.11l-.35.8,4-1.46-5.14,3.16c-.17.1-.49.31-.88.58l-.45.31a30.51,30.51,0,0,1-2.94,1.91l-.86.4c-1.4.65-5.11,2.38-5.8,2.54s-2.61.8-3.25,1l-.31.1Z"/><path class="cls-1" d="M216.35,285l-.41.94,1.36-.49-2,1.21c-.2.11-.51.33-.9.6l-.46.31a34.32,34.32,0,0,1-2.88,1.88l-.33.15-.54.25c-1.26.59-5.08,2.36-5.72,2.52-.45.1-1.42.41-2.36.71l.77-.92c1-.16,4.82-.82,6.76-2.24a41.46,41.46,0,0,0,6.68-4.92m7.6-2.76-3.71,1.34c-1.35.48-2.29.83-2.91,1.06L218,283l.14-.32-.37-.15-.38-.17a2,2,0,0,1-.14.3c-1.24,2.25-6,5.32-8,6.55-2,1.51-6.53,2.14-6.58,2.14l-.16,0-2.62,3.16,1.34-.45s2.67-.89,3.44-1.07c.6-.15,3.17-1.32,5.87-2.57l.85-.39a32.59,32.59,0,0,0,3-1.95c.59-.4,1.08-.74,1.32-.88l4.88-3,3.36-2.07Z"/><path class="cls-1" d="M215.21,286.27c1.33-1,6.5-4.8,7.66-5.82l1.18-1c3.28-2.87,13.24-11.59,15.6-13.85,1.4-1.35,4.7-4.91,7.88-8.34s6.16-6.65,7.42-7.86c1.56-1.49,6-5.16,12.93-10.61l.34-.27,8.6-7,0,.05-.17.13c-1.72,1.39-7.64,6.2-8.43,6.83l-.35.27c-8.71,6.88-11.83,9.57-12.91,10.61-1.27,1.21-4.4,4.59-7.42,7.85-3.19,3.44-6.48,7-7.89,8.34-2.38,2.29-12,10.74-15.68,13.93l-1.1,1c-1.1,1-6.31,4.85-7.67,5.82Z"/><path class="cls-1" d="M276.87,231,268,238.2l-.35.27c-6.9,5.45-11.38,9.13-12.95,10.63-1.27,1.22-4.26,4.45-7.43,7.87s-6.48,7-7.87,8.33c-2.37,2.27-12.38,11-15.67,13.91l-1.09,1c-1.3,1.14-7.67,5.84-7.92,6l.42.7c.4-.25,6.79-5,8-6.08l1.1-1c3.64-3.19,13.31-11.65,15.69-13.94,1.41-1.35,4.71-4.91,7.9-8.36,3-3.26,6.15-6.63,7.41-7.83,1.07-1,4.19-3.71,12.89-10.59l.34-.27c.92-.73,8.81-7.13,8.89-7.2l-.51-.63Z"/><path class="cls-1" d="M287.91,216.15c.19-.59.62-2.23,1.73-7.21q.32-1.4.66-3c.15-.67.5-2.34.5-2.34l0-.11a44.7,44.7,0,0,0,0-11.11,22.3,22.3,0,0,0-1.77-6.54l0-.07a43.38,43.38,0,0,0-3.9-7.15l.05,0a41.94,41.94,0,0,1,3.58,6.38,1,1,0,0,0,.07.16,23.76,23.76,0,0,1,2.07,7.25c.59,6.42.19,10.2,0,11.11l0,.15-.71,3.32c-.19.88-.39,1.79-.6,2.69s-.35,1.57-.52,2.3l0,.1c-.31,1.36-.6,2.57-.82,3.39-.1.35-.17.6-.23.77Z"/><path class="cls-1" d="M285.27,178l-.66.47a41.61,41.61,0,0,1,4.08,7.39h0a22.61,22.61,0,0,1,1.77,6.49c.7,7.48,0,11,0,11l0,.13c-.17.8-.34,1.57-.5,2.31-.23,1.09-.45,2.11-.66,3.05-1,4.33-1.63,7.07-1.84,7.46l.2.12h0l.5.26h0a8,8,0,0,0,.38-1.19c.23-.85.52-2.05.83-3.4h0c.18-.76.37-1.57.55-2.4.23-1,.46-2.07.68-3.07s.45-2.07.63-3l0-.13c.21-.95.61-4.83,0-11.23a24.45,24.45,0,0,0-2.11-7.41.52.52,0,0,1-.06-.13,41.89,41.89,0,0,0-3.83-6.74Z"/><path class="cls-1" d="M236.75,176.94c0,.11-.09.21-.13.3s-.13.33-.2.47c-.13.38-.25.7-.34,1-.67,2.31-1.72,8.46-2.64,13.88-.76,4.5-1.49,8.74-1.87,10.09s-1.33,5.49-2.3,9.85c-1.14,5.1-2.43,10.87-2.82,11.89-.67,1.77-3,9.15-2.32,13l.1.6c.61,3.35,1,5.38,2.26,7.07l.33-.23.32-.25c-1.16-1.54-1.5-3.38-2.11-6.74l-.11-.59c-.67-3.68,1.67-11,2.29-12.62.4-1.06,1.65-6.61,2.85-12,1-4.35,1.89-8.46,2.28-9.8s1.1-5.47,1.9-10.19c.92-5.4,2-11.51,2.62-13.79,0-.17.12-.36.19-.57s.23-.59.39-.94q.06-.14.12-.3Zm0,0c0,.11-.09.21-.13.3s-.13.33-.2.47c-.13.38-.25.7-.34,1-.67,2.31-1.72,8.46-2.64,13.88-.76,4.5-1.49,8.74-1.87,10.09s-1.33,5.49-2.3,9.85c-1.14,5.1-2.43,10.87-2.82,11.89-.67,1.77-3,9.15-2.32,13l.1.6c.61,3.35,1,5.38,2.26,7.07l.33-.23.32-.25c-1.16-1.54-1.5-3.38-2.11-6.74l-.11-.59c-.67-3.68,1.67-11,2.29-12.62.4-1.06,1.65-6.61,2.85-12,1-4.35,1.89-8.46,2.28-9.8s1.1-5.47,1.9-10.19c.92-5.4,2-11.51,2.62-13.79,0-.17.12-.36.19-.57s.23-.59.39-.94q.06-.14.12-.3Zm0,0c0,.11-.09.21-.13.3s-.13.33-.2.47c-.13.38-.25.7-.34,1-.67,2.31-1.72,8.46-2.64,13.88-.76,4.5-1.49,8.74-1.87,10.09s-1.33,5.49-2.3,9.85c-1.14,5.1-2.43,10.87-2.82,11.89-.67,1.77-3,9.15-2.32,13l.1.6c.61,3.35,1,5.38,2.26,7.07l.33-.23.32-.25c-1.16-1.54-1.5-3.38-2.11-6.74l-.11-.59c-.67-3.68,1.67-11,2.29-12.62.4-1.06,1.65-6.61,2.85-12,1-4.35,1.89-8.46,2.28-9.8s1.1-5.47,1.9-10.19c.92-5.4,2-11.51,2.62-13.79,0-.17.12-.36.19-.57s.23-.59.39-.94q.06-.14.12-.3Zm13.95-24.51s0,0,0,0l0,.05c-3.06,4.75-9.59,15.69-12.81,22.14l-.34.68q-.3.6-.54,1.14l-.21.45c0,.11-.09.21-.13.3s-.13.33-.2.47c-.13.38-.25.7-.34,1-.67,2.31-1.72,8.46-2.64,13.88-.76,4.5-1.49,8.74-1.87,10.09s-1.33,5.49-2.3,9.85c-1.14,5.1-2.43,10.87-2.82,11.89-.67,1.77-3,9.15-2.32,13l.1.6c.61,3.35,1,5.38,2.26,7.07,0,0,0,0,0,.07l1.77,2.33.21-.83a4.62,4.62,0,0,1,.22-.58c.19-.4.52-1.06,1.08-2a.28.28,0,0,0,0-.06c.19-.32.4-.68.65-1.08,1.78-2.95,5.59-11.22,5.68-12.16,0-.51,1.61-6.53,2.65-10.52.57-2.18,1-4,1.16-4.5.5-2.09,2.32-10.73,2.16-14.66a104.23,104.23,0,0,1,1.7-16c.17-1,.36-2,.54-2.89.22-1.08.46-2.08.69-3l.08-.29c0-.17.08-.33.13-.5.2-.68.39-1.29.6-1.83a1.42,1.42,0,0,1,.05-.16c1.42-3.62,3-11.57,4.15-17.38.61-3,1.09-5.44,1.35-6.29l.9-2.89Zm-1.42,6.47c-1.14,5.78-2.71,13.7-4.1,17.24l-.09.24c-.2.53-.4,1.15-.59,1.84,0,.16-.08.31-.13.48s-.05.2-.08.3c-.2.78-.4,1.63-.59,2.53s-.38,1.89-.57,2.88a109.57,109.57,0,0,0-1.8,16.69c.16,3.85-1.64,12.38-2.14,14.44-.12.52-.59,2.31-1.15,4.49-1.49,5.71-2.63,10.12-2.69,10.65a87.8,87.8,0,0,1-5.56,11.81c-.26.43-.49.82-.68,1.16s-.49.86-.66,1.19-.35.69-.45.92l-.37-.48h0l-.49-.65c-1.16-1.54-1.5-3.38-2.11-6.74l-.11-.59c-.67-3.68,1.67-11,2.29-12.62.4-1.06,1.65-6.61,2.85-12,1-4.35,1.89-8.46,2.28-9.8s1.1-5.47,1.9-10.19c.92-5.4,2-11.51,2.62-13.79,0-.17.12-.36.19-.57s.23-.59.39-.94q.06-.14.12-.3c.07-.14.15-.3.22-.46s.21-.44.32-.69.35-.72.56-1.12c2.35-4.69,6.45-11.74,9.65-17,.63-1,1.23-2,1.78-2.9-.11.5-.21,1-.34,1.63S249.45,158.06,249.28,158.9Zm-12.53,18c0,.11-.09.21-.13.3s-.13.33-.2.47c-.13.38-.25.7-.34,1-.67,2.31-1.72,8.46-2.64,13.88-.76,4.5-1.49,8.74-1.87,10.09s-1.33,5.49-2.3,9.85c-1.14,5.1-2.43,10.87-2.82,11.89-.67,1.77-3,9.15-2.32,13l.1.6c.61,3.35,1,5.38,2.26,7.07l.33-.23.32-.25c-1.16-1.54-1.5-3.38-2.11-6.74l-.11-.59c-.67-3.68,1.67-11,2.29-12.62.4-1.06,1.65-6.61,2.85-12,1-4.35,1.89-8.46,2.28-9.8s1.1-5.47,1.9-10.19c.92-5.4,2-11.51,2.62-13.79,0-.17.12-.36.19-.57s.23-.59.39-.94q.06-.14.12-.3Zm0,0c0,.11-.09.21-.13.3s-.13.33-.2.47c-.13.38-.25.7-.34,1-.67,2.31-1.72,8.46-2.64,13.88-.76,4.5-1.49,8.74-1.87,10.09s-1.33,5.49-2.3,9.85c-1.14,5.1-2.43,10.87-2.82,11.89-.67,1.77-3,9.15-2.32,13l.1.6c.61,3.35,1,5.38,2.26,7.07l.33-.23.32-.25c-1.16-1.54-1.5-3.38-2.11-6.74l-.11-.59c-.67-3.68,1.67-11,2.29-12.62.4-1.06,1.65-6.61,2.85-12,1-4.35,1.89-8.46,2.28-9.8s1.1-5.47,1.9-10.19c.92-5.4,2-11.51,2.62-13.79,0-.17.12-.36.19-.57s.23-.59.39-.94q.06-.14.12-.3Zm0,0c0,.11-.09.21-.13.3s-.13.33-.2.47c-.13.38-.25.7-.34,1-.67,2.31-1.72,8.46-2.64,13.88-.76,4.5-1.49,8.74-1.87,10.09s-1.33,5.49-2.3,9.85c-1.14,5.1-2.43,10.87-2.82,11.89-.67,1.77-3,9.15-2.32,13l.1.6c.61,3.35,1,5.38,2.26,7.07l.33-.23.32-.25c-1.16-1.54-1.5-3.38-2.11-6.74l-.11-.59c-.67-3.68,1.67-11,2.29-12.62.4-1.06,1.65-6.61,2.85-12,1-4.35,1.89-8.46,2.28-9.8s1.1-5.47,1.9-10.19c.92-5.4,2-11.51,2.62-13.79,0-.17.12-.36.19-.57s.23-.59.39-.94q.06-.14.12-.3Zm0,0c0,.11-.09.21-.13.3s-.13.33-.2.47c-.13.38-.25.7-.34,1-.67,2.31-1.72,8.46-2.64,13.88-.76,4.5-1.49,8.74-1.87,10.09s-1.33,5.49-2.3,9.85c-1.14,5.1-2.43,10.87-2.82,11.89-.67,1.77-3,9.15-2.32,13l.1.6c.61,3.35,1,5.38,2.26,7.07l.33-.23.32-.25c-1.16-1.54-1.5-3.38-2.11-6.74l-.11-.59c-.67-3.68,1.67-11,2.29-12.62.4-1.06,1.65-6.61,2.85-12,1-4.35,1.89-8.46,2.28-9.8s1.1-5.47,1.9-10.19c.92-5.4,2-11.51,2.62-13.79,0-.17.12-.36.19-.57s.23-.59.39-.94q.06-.14.12-.3Z"/><path class="cls-1" d="M228,246.22c0-.27,0-.58,0-.94,0-6.58,3.91-21.63,5.14-24.56,1-2.33,2.3-9.48,3.18-14.2.45-2.47.76-4.11.87-4.32.13-.39.44-2.76,1-6.91l.08-.64c.57-4.35,1.27-9.77,1.87-13.54.2-1.24.37-2.19.53-2.89,0-.16.12-.56.12-.56.13-.52.35-1.24.67-2.18,1.16-3.38,3.65-9.43,7.19-17.51,1-2.24,1.77-4,2.14-4.84l.07-.15,0,0-1.5,3.39c-1.76,4-6.06,13.84-7.86,19-.32.92-.57,1.7-.7,2.26l0,.13c-.05.2-.1.45-.16.71l0,.23c-.15.78-.32,1.77-.5,3-.61,3.88-1.32,9.34-1.79,12.95-.65,5-1,7.3-1.08,7.57s-.31,1.29-.86,4.3l-.06.3c-.86,4.63-2.16,11.63-3.12,13.91-1.32,3.13-5,17.62-5.13,24.09a12.4,12.4,0,0,0,0,1.38Z"/><path class="cls-1" d="M250.67,152.48l0,.05c-.19.42-1.12,2.49-2.34,5.29-2.3,5.25-5.68,13.11-7.2,17.53-.31.9-.55,1.66-.69,2.22a.5.5,0,0,1,0,.12c0,.14-.07.29-.1.45-.17.77-.35,1.77-.53,2.91-.6,3.72-1.28,9-1.87,13.55-.48,3.65-.92,7.09-1,7.43a39.07,39.07,0,0,0-.9,4.42c-.87,4.72-2.2,11.83-3.15,14.12-1.32,3.14-5.2,18.28-5.18,24.71h0a11,11,0,0,0,.08,1.37l.81-.12a9.75,9.75,0,0,1-.07-1.69c.15-6.44,3.86-21,5.1-24,1-2.37,2.32-9.55,3.21-14.3.37-2,.73-4,.82-4.19s.36-1.8,1.12-7.69c.53-4.08,1.2-9.2,1.79-12.94.17-1.12.34-2.13.5-2.94.08-.35.14-.67.2-1l0-.12a22.31,22.31,0,0,1,.68-2.21c1.68-4.84,5.6-13.9,7.85-19,1-2.21,1.63-3.68,1.66-3.73l-.74-.34Z"/><path class="cls-1" d="M226.22,259.21a32.12,32.12,0,0,0,.72-4.5,17.78,17.78,0,0,1,.25-2.32l0-.17a16.45,16.45,0,0,0,.27-3.26,9.8,9.8,0,0,1,0-1.2,4.38,4.38,0,0,0-.48-2.55l.08-.05,1,1.33.26-.57c.23-.51.54-1.11.92-1.79l.11.06a14.21,14.21,0,0,0-.84,3.63c0,.85-.19,2.4-.36,3.9-.19,1.84-.29,2.9-.27,3.19a3,3,0,0,0,.15.69,1.4,1.4,0,0,1,0,1.15,24.59,24.59,0,0,1-1.8,2.47l-.1.12Z"/><path class="cls-1" d="M227.84,246.8l.32.42.07-.16a6.75,6.75,0,0,0-.07.75c0,.85-.2,2.38-.36,3.87-.23,2.17-.29,3-.28,3.27a3.48,3.48,0,0,0,.18.77,1.05,1.05,0,0,1,.05.86,12.77,12.77,0,0,1-.86,1.25,18.34,18.34,0,0,0,.42-3.13,16.41,16.41,0,0,1,.25-2.26l0-.16a18.11,18.11,0,0,0,.28-3.35,9.16,9.16,0,0,1,0-1.16c0-.33,0-.65,0-1m1.27-3.15a22.6,22.6,0,0,0-1.11,2.11l-.86-1.13-.32.25-.33.23a3.88,3.88,0,0,1,.61,2.64,10.65,10.65,0,0,0,0,1.25,18.32,18.32,0,0,1-.3,3.34,16.73,16.73,0,0,0-.26,2.37,31.44,31.44,0,0,1-.71,4.42l-.38,1.72,1.1-1.38a30.23,30.23,0,0,0,1.85-2.54,1.78,1.78,0,0,0,0-1.45,2.53,2.53,0,0,1-.14-.59c0-.3.13-1.73.28-3.13s.32-3,.35-3.92a15.26,15.26,0,0,1,.94-3.85l-.73-.34Z"/><path class="cls-1" d="M292.28,165.44l.26-.82s1.89-.44,2.79-.65l-.75.63h0a9.56,9.56,0,0,0-2.22.72l0,0,0,0,0,0Z"/><path class="cls-1" d="M296.3,163.2a.34.34,0,0,0-.18,0l0,0a2.37,2.37,0,0,1-.65.3l-2.95.67a.4.4,0,0,0-.29.26l-.28.78a.4.4,0,0,0,.24.52l.14,0a.42.42,0,0,0,.34-.19,13.62,13.62,0,0,1,3-.85,7.67,7.67,0,0,1,1-.14h0a.39.39,0,0,0,.34-.34.13.13,0,0,0,0-.06.1.1,0,0,0,0-.07.88.88,0,0,1-.31.07H295.6l.11-.09.58-.53.34-.23v0a.39.39,0,0,0-.32-.16Z"/><path class="cls-1" d="M304.21,159c-1.72.86-3.14,1.53-3.43,1.61s-.4.11-1.21.59l-.35.21c-.37.23-.76.47-1.08.64l-.07,0-.32.16a1.1,1.1,0,0,0-.45.17h-.06l-.06,0,0,0-.45.31-.58.4-.1.07-.8.72-.62.56-.05,0h2.13A5.72,5.72,0,0,0,299,163.5a19.1,19.1,0,0,1,1.66-1,29.18,29.18,0,0,0,4-2.81l2.64-2.21Zm-3.73,3.12c-1,.46-2.37,1.5-3.24,1.9h0l-.26.1a.88.88,0,0,1-.31.07H295.6l.11-.09.58-.53a0,0,0,0,0,0,0,3.78,3.78,0,0,0,.33-.22c.31-.2.6-.42.83-.56h0a.87.87,0,0,1,.33-.14,2.46,2.46,0,0,0,.54-.24h0l.78-.45a9.66,9.66,0,0,1,1.68-.94,38.25,38.25,0,0,0,3.56-1.63A29.4,29.4,0,0,1,300.48,162.15Z"/><path class="cls-1" d="M307.29,157.5Zm0,0L304.21,159c-1.72.86-3.14,1.53-3.43,1.61s-.4.11-1.21.59l-.35.21c-.37.23-.76.47-1.08.64l-.07,0-.32.16a1.1,1.1,0,0,0-.45.17h-.06l-.06,0,0,0-.45.31-.58.4-.1.07-.8.72-.62.56-.05,0h2.13A5.72,5.72,0,0,0,299,163.5a19.1,19.1,0,0,1,1.66-1,29.18,29.18,0,0,0,4-2.81l2.64-2.21ZM300.81,161c.28,0,3.2-1.45,3.56-1.63a29.4,29.4,0,0,1-3.89,2.74c-1,.46-2.37,1.5-3.24,1.9h0l-.26.1a.88.88,0,0,1-.31.07H295.6l.11-.09.58-.53a0,0,0,0,0,0,0,3.78,3.78,0,0,0,.33-.22c.31-.2.6-.42.83-.56h0a.87.87,0,0,1,.33-.14,2.46,2.46,0,0,0,.54-.24h0l.78-.45a10,10,0,0,1,1.67-.94Z"/><path class="cls-1" d="M290.09,168.22c.43,0,.89-.05,1.32-.1a14.79,14.79,0,0,0-1.69.59l-.24.11Zm3.85-1.26.37-.33C294.2,166.74,294.07,166.85,293.94,167Z"/><path class="cls-1" d="M297.24,164.05h0Zm0,0-.26.11a.88.88,0,0,1-.31.07h-.56s0,0-.06.06-.18.21-.29.34l-.13.14-.53.62c-.09.12-.56.54-1,.94a13.53,13.53,0,0,0-1.19,1.12,10.48,10.48,0,0,1-2.95.4h0l-2,1.94.44-.15s1.12-.41,1.51-.61a16.05,16.05,0,0,1,1.7-.58c.58-.18,1.12-.35,1.41-.46a5.63,5.63,0,0,0,2.07-1.67,17.85,17.85,0,0,1,1.57-1.7h0l.34-.34.05,0,.2-.19Z"/><path class="cls-1" d="M300,159.11c.06-.15.15-.37.24-.66l0-.07c.87-2.52,3.09-9.6,3-10.39s4.18-9,8.14-12.09,14.33-9.64,15.55-10.06l.2-.07-.17.12c-.07,0-6.72,4.85-7.43,5.6-.21.23-1.08,1-2.28,2.18l-.56.53c-3.54,3.34-7,6.68-7.6,7.47a70.61,70.61,0,0,0-5.32,9.59c-.17.41-.34.84-.51,1.28l0,.09a35.76,35.76,0,0,1-2.73,5.87,7,7,0,0,1-.5.65l-.12.12Zm19.9-28.93c-3.6,2.31-6.67,4.41-8.41,5.76-3.94,3.07-8.07,11-8.11,12a51.92,51.92,0,0,1-1.95,7.08l.7.26c.36-.83.7-1.69,1-2.52,0,0,.46-1.13.62-1.55a75.63,75.63,0,0,1,5.32-9.61,37.34,37.34,0,0,1,2.71-2.78c1.42-1.38,3.24-3.11,5.15-4.91,1.62-1.53,2.4-2.27,2.59-2.48s.42-.37.79-.66Z"/><path class="cls-1" d="M321.2,129.71l-1,.81-.07-.1,1.11-.71m-19.49,25.45.11,0c-.15.34-.29.67-.44,1,.11-.32.21-.67.33-1m27.78-30.59h0Zm0,0-2.62.91c-1.25.43-11.63,7-15.66,10.12s-8.33,11.25-8.28,12.41a103.48,103.48,0,0,1-3.05,10.31h0c-.1.28-.18.5-.24.65l-.77,2,1.45-1.54a5.64,5.64,0,0,0,.52-.66l0,0a36.87,36.87,0,0,0,2.81-6c.17-.44.34-.87.51-1.28a73.15,73.15,0,0,1,5.27-9.52c.61-.85,5.11-5.1,7.8-7.63,1.38-1.31,2.38-2.25,2.61-2.5.57-.6,5.52-4.22,7.38-5.55l2.25-1.63Zm-27.71,30.58a54.51,54.51,0,0,0,2-7.18c0-.78,4-8.67,8-11.73,2-1.51,5.3-3.77,8.39-5.75a8.35,8.35,0,0,0-.83.71c-.22.23-1.26,1.21-2.58,2.45-1.91,1.8-3.73,3.54-5.15,4.92a35.27,35.27,0,0,0-2.75,2.84,73.62,73.62,0,0,0-5.36,9.68l-.52,1.29c-.36.9-.74,1.86-1.13,2.77Z"/><polygon class="cls-1" points="295.62 164.23 295.9 164.23 295.27 164.61 295.62 164.23"/><polygon class="cls-1" points="295.9 164.23 295.62 164.23 295.27 164.61 295.9 164.23 295.9 164.23"/><path class="cls-1" d="M298,162.19a8,8,0,0,0,.85-1.05l1.24-2.38.18.08,0,0,.08,0c-.25.48-.68,1.3-.91,1.8-.06.13-.13.26-.21.4s-.25.45-.38.65l-.2.12-.49.28Z"/><path class="cls-1" d="M299.9,158.28,298.52,161a10.85,10.85,0,0,1-1.28,1.51.27.27,0,0,1-.07.08l-1.46,1.6.58-.53c.43-.27.86-.6,1.17-.79h0a.87.87,0,0,1,.33-.14,2.46,2.46,0,0,0,.54-.24h0l.78-.45c.14-.22.3-.49.44-.75s.16-.28.22-.42c.33-.72,1.06-2.09,1.07-2.1l-.7-.42,0,.08-.22-.09Z"/><path class="cls-1" d="M238.87,284.71a7.08,7.08,0,0,1-1.34-.11,81.23,81.23,0,0,1-11.24-2.55l0-.05.75.24.06,0a93.72,93.72,0,0,0,10.41,2.28,7.43,7.43,0,0,0,1.35.11c4.52,0,13.08-2.75,15.59-3.6l.12,0c1-.34,6.77-2,11.89-3.39l1.3-.37c3.51-1,6.27-1.75,6.9-1.95,1.58-.49,18.1-4.45,21.11-4.79,2-.23,8.23-2.68,11.77-4.12l.82-.33,1.66-.69,3.45-1.47-1.54-.11-2-.15-.8-.07-.82-.08-.27,0-.52-.07a32.75,32.75,0,0,1-5.53-1c-2.83-.84-14.24-1.39-20.37-1.68l-.38,0-2.81-.14h-.13c-2.58,0-21.4,3.65-24.4,4.61-2.48.79-8.25,2.08-9.89,2.44v-.06l.83-.19c.66-.15,6.55-1.45,9-2.26,2.73-.87,21.49-4.61,24.4-4.61h.16l1.74.09,1.19.06c5.77.27,17.77.84,20.64,1.69a34.36,34.36,0,0,0,5.43,1l1,.12,1.44.14c1.32.11,2.68.2,3.74.25h.13l-.09,0h0l-.08,0c-.69.31-2.18.95-3.89,1.66-.51.22-1.06.44-1.63.67-.29.13-.57.24-.85.35-5.92,2.4-10,3.81-11.43,4-2.9.33-19.57,4.32-21.1,4.79-.61.2-3.31,1-6.45,1.83l-2.09.59c-5,1.39-10.61,3-11.55,3.3S243.89,284.71,238.87,284.71Z"/><path class="cls-1" d="M278.31,260.09c-3,0-21.85,3.77-24.52,4.63-2.1.68-6.79,1.76-9,2.24l-1.2.27.18.8.13,0h0c1.07-.23,7.5-1.65,10.14-2.49,3-1,21.85-4.6,24.29-4.6h.11l2.81.14c5.79.27,17.82.83,20.66,1.68a34.89,34.89,0,0,0,5.59,1l.8.1.83.08.79.07,2,.16-1.13.48-.9.38-1.65.68-.82.33c-4.49,1.82-9.92,3.89-11.67,4.09-3.07.35-19.61,4.33-21.18,4.81-.67.21-3.86,1.1-7.57,2.14-5.39,1.51-11.52,3.22-12.53,3.58-.47.15-10.55,3.61-15.59,3.61a7.31,7.31,0,0,1-1.3-.1,88.73,88.73,0,0,1-10.4-2.29h0c-.46-.14-.82-.27-1.06-.36l-.32.74.15.07h0A79.76,79.76,0,0,0,237.46,285a7.54,7.54,0,0,0,1.41.11c5.09,0,14.69-3.25,15.86-3.66,1-.34,7.37-2.12,12.49-3.56,3.71-1,6.91-1.93,7.59-2.15,1.51-.47,18.11-4.44,21-4.77,1.83-.21,7.1-2.21,11.53-4l.83-.34,1.66-.68c1.79-.75,3.23-1.36,3.9-1.67l.05,0,1.57-.7-1.72-.08c-.93,0-2.25-.12-3.72-.24l-1.62-.16h0l-.81-.09a34,34,0,0,1-5.37-1c-2.93-.87-15-1.44-20.85-1.72-1.37-.06-2.37-.1-2.79-.13Z"/><path class="cls-1" d="M210.56,281.58h0c.29.06,1.64.37,2,.51a1.4,1.4,0,0,0,.42,0c1,0,4.21-.27,5.08-.36h.05l-.32.78a3.59,3.59,0,0,1-.17.34h0a23.05,23.05,0,0,1-4.58.34,6.58,6.58,0,0,1-.88,0h-.26a11,11,0,0,0-2.33.42l-.07,0Z"/><path class="cls-1" d="M210.76,282c.49.11,1.42.33,1.65.43l.07,0,.07,0a2.12,2.12,0,0,0,.42,0c.88,0,3.28-.2,4.56-.31l-.09.2a.88.88,0,0,1-.09.2,28.67,28.67,0,0,1-4.33.28,7,7,0,0,1-.82,0l-.31,0a8.22,8.22,0,0,0-1.68.25l.55-1.08m-.4-.85-1.61,3.1.91-.26a10.72,10.72,0,0,1,2.23-.41h.21a8.2,8.2,0,0,0,.92,0,22.47,22.47,0,0,0,4.75-.38l.12-.05.05-.12a3.37,3.37,0,0,0,.19-.38l.46-1.09-.44-.23-.12,0c-.86.08-4.05.36-5.06.36l-.27,0a18.49,18.49,0,0,0-2-.52l-.31-.07Z"/><path class="cls-1" d="M233,278.18c.38-.14,1-.31,1.76-.52l.55-.14c2.53-.66,6.76-1.76,13.54-4.09,9.09-3.11,24-5.48,32.08-6.76l.28-.05c1.45-.23,2.63-.41,3.44-.56,5.2-.91,13.18-1.24,19-1.49l1.62-.07,2.24-.11c.56,0,1.12,0,1.63-.08l.8-.05a27.29,27.29,0,0,0,3.32-.34l0,.06a21.64,21.64,0,0,1-2.53.29l-.87.06c-.74.05-1.56.09-2.44.13-1.16.06-2.43.12-3.79.17-5.82.25-13.8.59-19,1.49-.87.16-2.14.36-3.72.61l-.12,0c-8,1.28-22.95,3.66-31.94,6.74-6.9,2.36-11.22,3.49-13.54,4.09a23.85,23.85,0,0,0-2.31.66Z"/><path class="cls-1" d="M313.53,263.47a20.74,20.74,0,0,1-3.61.42l-.79.05-1.63.08c-1.19.07-2.5.11-3.86.18-6.19.26-13.89.59-19.06,1.49-.85.15-2.13.36-3.71.61-8.06,1.28-23.06,3.67-32.14,6.78-6.7,2.29-11,3.41-13.51,4.08-.2,0-.38.09-.56.14a9,9,0,0,0-2.23.75l.48.65h0a15,15,0,0,1,2.52-.76c2.55-.66,6.83-1.79,13.56-4.09,9-3.09,24-5.47,32-6.75,1.58-.25,2.86-.45,3.73-.61,5.11-.89,12.78-1.22,18.95-1.48l3.79-.17c.88,0,1.7-.09,2.44-.14l.88-.05a16.31,16.31,0,0,0,3-.4l-.23-.78Z"/><path class="cls-1" d="M279.71,174.22v0l0,0c.1-.24.27-.71.58-1.72l0-.06v0c.78-2.55,1.89-6.63,2.06-7.3a57.39,57.39,0,0,1,3.82-7.36c1-1.8,5.12-9.54,6.16-11.82l0,0,0-.09.1-.23,0,.15,0,0v.2c-.48,2.11-4.6,18.15-5.63,20.43-.52,1.16-2.57,3.53-5.78,6.7l-.05,0c-.77.76-1.28,1.24-1.28,1.25l-.19.17Zm9.75-22.45c-1.3,2.5-2.64,5-3.19,6-3.57,6.33-3.75,7.09-3.81,7.34-.12.49-.77,2.88-1.43,5.16-.22.79-.45,1.56-.65,2.21l0,.05v.06l0,0-.47,1.55,1.06-1.06.7-.69c1.65-1.65,4.51-4.62,5.16-6.07s2.7-9.08,3.54-12.27v-.11c.44-1.58.85-3.17,1.19-4.53l.8-3.15-1.81,3.51-1,1.89Z"/><path class="cls-1" d="M293.69,142h0Zm0,0-.36.82-1.23,2.74a.24.24,0,0,0,0,.08s0,0,0,0c-1,2.16-5.11,10-6.17,11.84A64.85,64.85,0,0,0,282,165c-.18.71-1.3,4.85-2.07,7.33v0c-.34,1.13-.51,1.54-.56,1.68l-.06.1-1.79,2.77L280,174.6s.52-.49,1.29-1.25h0c1.89-1.86,5.14-5.19,5.89-6.84,1-2.32,5.16-18.38,5.64-20.52l0-.06s0,0,0,0l.81-3.7,0-.16Zm-13,30.8a1.83,1.83,0,0,0,.08-.25h0c.21-.65.43-1.42.66-2.22.64-2.22,1.3-4.64,1.43-5.17a59.86,59.86,0,0,1,3.78-7.25c.54-1,1.91-3.49,3.23-6h0c.46-.88.91-1.76,1.32-2.56-.34,1.36-.76,2.94-1.2,4.62h0c-1.36,5.13-3,11-3.52,12.22-.46,1-2.31,3.19-5.08,6l-.67.67,0,0Z"/><path class="cls-1" d="M275.25,184.9a12.55,12.55,0,0,1,.31-3.71c.4-1,3.12-5.77,3.3-6.07s.56-1,1.3-2.39l.11,0-.43,1.46.87-.93.09.08c-1.48,2.13-2.26,3.29-2.41,3.55l-.11.17c-.49.75-1.73,2.67-1.31,4.62v0c-.75,1.37-1.52,2.9-1.64,3.14l-.07.15Z"/><path class="cls-1" d="M276.61,179.91a4.72,4.72,0,0,0,0,1.76c-.33.61-.67,1.25-.95,1.79a7.92,7.92,0,0,1,.28-2.13,15.48,15.48,0,0,1,.7-1.42m3.38-7.66c-.07.14-1.24,2.36-1.45,2.67s-2.92,5.05-3.33,6.14a14.44,14.44,0,0,0-.33,3.85l.05,1.6.72-1.43s.84-1.68,1.65-3.16l.07-.13,0-.15c-.39-1.81.8-3.64,1.25-4.32l.12-.21c.16-.26,1.12-1.67,2.59-3.8l-.61-.52,0,0a2.58,2.58,0,0,0,.08-.26l-.74-.31Z"/><path class="cls-1" d="M292.42,145.83l0,0-.05.1Zm0-.1v0c.22-1.75,1.86-11.7,3.43-16.11l.73-2.06a44.72,44.72,0,0,1,2.29-5.73c1.16-2.39,7.91-12.41,10.61-16.13l.06-.1.1-.14-.09.23c-.66,1.76-6.22,16.46-6.71,17.42-.29.54-3,6.52-5.63,12.3L296,138.17c-1.66,3.68-3.07,6.77-3.43,7.53l-.1.09Zm15.29-37.49c-.87,1.27-1.87,2.72-2.87,4.22-3.1,4.61-5.32,8.11-5.92,9.35a42.56,42.56,0,0,0-2.23,5.57l-.78,2.22a79,79,0,0,0-2.39,10c-.23,1.17-.42,2.27-.58,3.22l-.48,2.76,1.17-2.44,1.28-2.81.06-.06v-.08l1.46-3.22c2.83-6.23,6-13.29,6.35-13.89s2.43-6.13,4.76-12.24v-.05h0c.29-.74.56-1.46.82-2.16l1.05-2.81Z"/><path class="cls-1" d="M293.24,143l.1,0-.16.36.06-.4m17.75-40h0Zm0,0-1.77,2.45,0,0c-2.71,3.75-9.46,13.74-10.64,16.18a45.06,45.06,0,0,0-2.3,5.78l-.73,2.06c-1.56,4.38-3.22,14.35-3.46,16.23v.06l-.32,2.52,1.08-2.28h0l0-.06h0a.1.1,0,0,1,0,0c.34-.72,1.72-3.75,3.43-7.54,2.78-6.1,6.57-14.46,6.9-15.09.53-1,6.25-16.19,6.71-17.4,0,0,0,0,0-.06l1.07-2.83Zm-17.68,40s0-.06,0-.1c.16-1,.35-2,.58-3.2h0a77.85,77.85,0,0,1,2.38-9.9l.72-2.06a44.22,44.22,0,0,1,2.26-5.69c.7-1.42,3.32-5.46,5.9-9.31,1-1.49,2-2.94,2.87-4.2-.26.69-.53,1.41-.82,2.15,0,0,0,0,0,0-2.08,5.45-4.43,11.61-4.74,12.21s-4,8.68-6.91,15.13c-.33.71-.64,1.41-.94,2.06v0c-.35.74-.67,1.46-1,2.1l-.35.76Z"/><path class="cls-1" d="M279.85,174c1.16-2.13,7.56-13.87,8.11-15.6s4.31-12.14,4.46-12.58c0-.06,1-3.31,2.14-7,1-3.09,5.78-14.76,7.57-19.16.36-.86.61-1.47.71-1.72.55-1.39,5.37-10,6.5-12l.05,0c-1,1.81-5.94,10.59-6.5,12l-.7,1.72c-1.82,4.46-6.57,16.09-7.57,19.16-1.2,3.7-2.13,7-2.14,7l-.1.26c-1.43,4-3.9,10.84-4.37,12.31-.54,1.73-6.94,13.48-8.11,15.61Z"/><path class="cls-1" d="M309.19,105.43c-.24.44-6.08,10.79-6.7,12.35l-.7,1.72c-1.8,4.4-6.58,16.08-7.58,19.19-1.18,3.65-2.14,6.95-2.14,7-.16.44-3.88,10.73-4.47,12.6s-8.18,15.72-8.26,15.86l.71.39c.32-.58,7.72-14.11,8.32-16s4.43-12.46,4.47-12.59,1-3.33,2.14-7c1-3.08,5.76-14.74,7.56-19.13l.7-1.73c.61-1.51,6.6-12.15,6.66-12.25l-.71-.4Z"/></g><path class="cls-2" d="M251.35,53.28A202.06,202.06,0,0,1,412.11,223.4C427.6,333.86,350.6,436,240.14,451.45S27.58,390,12.08,279.5a201,201,0,0,1,24.6-128.15"/><text class="cls-3" transform="translate(48.42 147.81) rotate(-54.74)">w</text><text class="cls-3" transform="translate(59.71 132.13) rotate(-50.54)">i</text><text class="cls-3" transform="matrix(0.67, -0.74, 0.74, 0.67, 65.59, 124.94)">l</text><text class="cls-3" transform="translate(72.77 116.87) rotate(-43.34)">d</text><text class="cls-3" transform="matrix(0.77, -0.64, 0.64, 0.77, 85.7, 104.86)"> </text><text class="cls-3" transform="matrix(0.81, -0.59, 0.59, 0.81, 91.98, 99.53)">a</text><text class="cls-3" transform="translate(104.06 90.65) rotate(-31.19)">n</text><text class="cls-3" transform="matrix(0.9, -0.44, 0.44, 0.9, 118.87, 81.65)">d</text><text class="cls-3" transform="translate(134.78 74.04) rotate(-22.18)"> </text><text class="cls-3" transform="translate(142.31 70.78) rotate(-18.37)">d</text><text class="cls-3" transform="translate(159.21 65.24) rotate(-13.76)">r</text><text class="cls-3" transform="matrix(0.98, -0.18, 0.18, 0.98, 172.58, 62.02)">i</text><text class="cls-3" transform="translate(181.7 60.28) rotate(-7.16)">e</text><text class="cls-3" transform="translate(194.08 58.61) rotate(-2.7)">d</text><text class="cls-3" transform="matrix(1, 0.02, -0.02, 1, 211.71, 57.92)"> </text><text class="cls-3" transform="matrix(1, 0.07, -0.07, 1, 220.01, 58.02)">c</text><text class="cls-3" transform="matrix(0.99, 0.14, -0.14, 0.99, 231.95, 58.87)">o</text><text class="cls-3" transform="translate(240.03 59.92) rotate(9.94)">.</text></g></g></svg>